<?xml version="1.0" standalone="no"?><!DOCTYPE svg PUBLIC "-//W3C//DTD SVG 1.1//EN" "http://www.w3.org/Graphics/SVG/1.1/DTD/svg11.dtd"><svg t="1649428139055" class="icon" viewBox="0 0 1024 1024" version="1.1" xmlns="http://www.w3.org/2000/svg" p-id="5128" xmlns:xlink="http://www.w3.org/1999/xlink" width="200" height="200"><defs><style type="text/css">@font-face { font-family: feedback-iconfont; src: url("//at.alicdn.com/t/font_1031158_u69w8yhxdu.woff2?t=1630033759944") format("woff2"), url("//at.alicdn.com/t/font_1031158_u69w8yhxdu.woff?t=1630033759944") format("woff"), url("//at.alicdn.com/t/font_1031158_u69w8yhxdu.ttf?t=1630033759944") format("truetype"); }
</style></defs><path d="M173.909333 146.090667l614.912 0 0 725.674666-614.912 0 0-725.674666Z" fill="#D8E3F0" p-id="5129"></path><path d="M254.464 226.816h453.632v564.394667H254.464z" fill="#EDF4FF" p-id="5130"></path><path d="M787.285333 662.186667l-74.581333 42.837333-74.410667-42.837333-137.557333 238.08 65.877333-8.192 25.6 61.098666 120.490667-208.554666 120.490667 208.554666 25.770666-61.098666 65.877334 8.192-137.557334-238.08z" fill="#F65855" p-id="5131"></path><path d="M712.704 667.477333m-149.504 0a149.504 149.504 0 1 0 299.008 0 149.504 149.504 0 1 0-299.008 0Z" fill="#FFC670" p-id="5132"></path><path d="M726.698667 518.656A123.733333 123.733333 0 1 1 563.2 681.472a149.504 149.504 0 1 0 162.816-162.816z" fill="#FFB75E" p-id="5133"></path><path d="M712.704 589.824l30.037333 38.912 46.250667 16.554667-27.648 40.618666-1.365333 49.152-47.274667-13.824-47.104 13.824-1.536-49.152-27.648-40.618666 46.250667-16.554667 30.037333-38.912z" fill="#FFDEAD" p-id="5134"></path><path d="M939.52 891.733333l-82.090667-141.994666a166.4 166.4 0 0 0-51.2-220.330667V168.96a39.936 39.936 0 0 0-39.936-39.936H196.608A39.765333 39.765333 0 0 0 156.842667 168.96v680.106667a39.765333 39.765333 0 0 0 39.765333 39.765333h290.986667l-1.706667 2.901333a17.066667 17.066667 0 0 0 0 18.090667 17.066667 17.066667 0 0 0 17.066667 7.509333l53.077333-6.826666 20.650667 49.322666a17.066667 17.066667 0 0 0 14.677333 10.410667h1.024a17.066667 17.066667 0 0 0 14.848-8.533333L682.666667 831.317333a174.250667 174.250667 0 0 0 30.208 2.901334 178.005333 178.005333 0 0 0 30.378666-2.901334L819.2 961.706667a17.066667 17.066667 0 0 0 14.848 8.533333h1.024a17.066667 17.066667 0 0 0 14.677333-10.410667L870.4 910.506667l53.077333 6.826666a17.066667 17.066667 0 0 0 17.066667-25.6z m-742.912-37.034666a5.632 5.632 0 0 1-5.632-5.632V168.96a5.802667 5.802667 0 0 1 5.632-5.802667h569.344a5.802667 5.802667 0 0 1 5.802667 5.802667V512a162.474667 162.474667 0 0 0-46.592-10.410667v-274.773333a17.066667 17.066667 0 0 0-17.066667-17.066667H254.464a17.066667 17.066667 0 0 0-17.066667 17.066667v564.224a17.066667 17.066667 0 0 0 17.066667 17.066667H534.186667l-26.965334 46.592zM546.133333 667.477333a166.229333 166.229333 0 0 0 21.845334 82.261334l-14.165334 24.234666H271.530667V243.882667h419.498666v258.56A166.912 166.912 0 0 0 546.133333 667.477333z m48.469334 247.466667l-12.288-29.525333a17.066667 17.066667 0 0 0-17.066667-10.24l-31.744 3.925333 57.344-99.328A166.4 166.4 0 0 0 648.533333 821.248zM580.266667 667.477333a132.437333 132.437333 0 1 1 132.437333 132.608A132.608 132.608 0 0 1 580.266667 667.477333z m280.746666 207.701334a17.066667 17.066667 0 0 0-17.92 10.24l-12.288 29.525333-54.101333-93.696A166.4 166.4 0 0 0 836.266667 779.776l57.344 99.328z" fill="#3D3D63" p-id="5135"></path><path d="M794.794667 629.248L753.322667 614.4l-27.136-34.133333A17.066667 17.066667 0 0 0 699.733333 580.266667l-27.136 34.133333-41.130666 14.848a17.066667 17.066667 0 0 0-10.410667 10.752 17.066667 17.066667 0 0 0 2.048 14.848l24.917333 36.522667 0.512 44.202666a17.066667 17.066667 0 0 0 6.997334 13.312 17.066667 17.066667 0 0 0 14.848 2.56l42.325333-12.458666 42.496 12.458666a14.677333 14.677333 0 0 0 4.778667 0 17.066667 17.066667 0 0 0 9.898666-3.242666 17.066667 17.066667 0 0 0 7.168-13.312l1.194667-44.202667 24.917333-36.522667a17.066667 17.066667 0 0 0 2.218667-14.848 17.066667 17.066667 0 0 0-10.581333-10.069333z m-47.445334 47.104a17.066667 17.066667 0 0 0-3.072 9.045333v27.136L716.8 704.853333a17.066667 17.066667 0 0 0-9.557333 0l-24.576 7.68-0.853334-27.136a17.066667 17.066667 0 0 0-3.072-9.045333l-15.189333-22.528 25.429333-9.045333a18.602667 18.602667 0 0 0 7.850667-5.632l17.066667-21.504 17.066666 21.504a18.602667 18.602667 0 0 0 7.850667 5.632l25.429333 9.045333zM558.250667 295.253333h-153.6a17.066667 17.066667 0 0 0 0 34.133334h153.6a17.066667 17.066667 0 0 0 0-34.133334zM337.749333 642.901333h87.210667a17.066667 17.066667 0 0 0 0-34.133333h-87.210667a17.066667 17.066667 0 0 0 0 34.133333zM494.933333 684.202667h-157.184a17.066667 17.066667 0 0 0 0 34.133333H494.933333a17.066667 17.066667 0 0 0 0-34.133333z" fill="#3D3D63" p-id="5136"></path></svg>