<?xml version="1.0" standalone="no"?><!DOCTYPE svg PUBLIC "-//W3C//DTD SVG 1.1//EN" "http://www.w3.org/Graphics/SVG/1.1/DTD/svg11.dtd"><svg t="1649427918040" class="icon" viewBox="0 0 1024 1024" version="1.1" xmlns="http://www.w3.org/2000/svg" p-id="2262" xmlns:xlink="http://www.w3.org/1999/xlink" width="200" height="200"><defs><style type="text/css">@font-face { font-family: feedback-iconfont; src: url("//at.alicdn.com/t/font_1031158_u69w8yhxdu.woff2?t=1630033759944") format("woff2"), url("//at.alicdn.com/t/font_1031158_u69w8yhxdu.woff?t=1630033759944") format("woff"), url("//at.alicdn.com/t/font_1031158_u69w8yhxdu.ttf?t=1630033759944") format("truetype"); }
</style></defs><path d="M0 0m0 0l1024 0q0 0 0 0l0 1024q0 0 0 0l-1024 0q0 0 0 0l0-1024q0 0 0 0Z" fill="#E8EFF8" p-id="2263"></path><path d="M139.636364 651.636364a23.272727 23.272727 0 0 1 23.272727-23.272728h698.181818a23.272727 23.272727 0 0 1 23.272727 23.272728v116.363636a23.272727 23.272727 0 0 1-23.272727 23.272727H162.909091a23.272727 23.272727 0 0 1-23.272727-23.272727v-116.363636z" fill="#247ADE" p-id="2264"></path><path d="M139.636364 442.181818a23.272727 23.272727 0 0 1 23.272727-23.272727h395.636364a23.272727 23.272727 0 0 1 23.272727 23.272727v116.363637a23.272727 23.272727 0 0 1-23.272727 23.272727H162.909091a23.272727 23.272727 0 0 1-23.272727-23.272727v-116.363637zM581.818182 232.727273a23.272727 23.272727 0 0 0-23.272727-23.272728H162.909091a23.272727 23.272727 0 0 0-23.272727 23.272728v116.363636a23.272727 23.272727 0 0 0 23.272727 23.272727h395.636364a23.272727 23.272727 0 0 0 23.272727-23.272727v-116.363636z" fill="#A0BFF7" p-id="2265"></path><path d="M768 488.727273a116.363636 116.363636 0 1 0 0-232.727273 116.363636 116.363636 0 0 0 0 232.727273z" fill="#69CB91" p-id="2266"></path></svg>