<?xml version="1.0" standalone="no"?><!DOCTYPE svg PUBLIC "-//W3C//DTD SVG 1.1//EN" "http://www.w3.org/Graphics/SVG/1.1/DTD/svg11.dtd"><svg t="1649428087313" class="icon" viewBox="0 0 1024 1024" version="1.1" xmlns="http://www.w3.org/2000/svg" p-id="4219" xmlns:xlink="http://www.w3.org/1999/xlink" width="200" height="200"><defs><style type="text/css">@font-face { font-family: feedback-iconfont; src: url("//at.alicdn.com/t/font_1031158_u69w8yhxdu.woff2?t=1630033759944") format("woff2"), url("//at.alicdn.com/t/font_1031158_u69w8yhxdu.woff?t=1630033759944") format("woff"), url("//at.alicdn.com/t/font_1031158_u69w8yhxdu.ttf?t=1630033759944") format("truetype"); }
</style></defs><path d="M264.192 512.512L139.776 437.76c-36.352-50.176-55.296-87.04-55.808-107.008s16.896-80.384 50.688-178.176l61.44-1.024c30.72-0.512 60.928-55.296 60.928-55.296l462.336-8.192 93.696 52.224-22.528 31.232 122.88-33.28 57.344 192-52.224 93.696-121.856 79.36-128 179.712-115.2 17.408 2.56 138.752 115.712-2.048 63.488 99.328-408.576 7.168 29.184-100.864 115.712-2.048-2.56-138.752-147.456-58.88-57.344-130.56z" fill="#F9EAD9" p-id="4220"></path><path d="M581.12 975.872l-283.648 2.048-1.536-78.848c0-9.216-0.512-35.328 23.552-60.416l1.536-1.536c22.528-22.016 55.296-24.064 59.904-24.064l66.048-1.024-1.024-61.44c-125.44-25.6-227.328-133.12-242.176-256.512v-1.536l-5.12-356.352c-1.024-44.544 35.328-80.896 80.384-81.408l309.76-2.56 1.024 53.76-309.76 2.56c-13.824 0-26.112 12.8-25.6 26.624l3.072 354.816c14.336 105.984 108.544 197.12 219.648 211.968l23.04 2.56 1.536 161.792-120.32 0.512c-3.072 0-15.36 2.048-21.504 8.192-7.68 7.68-9.216 15.36-8.704 18.432l0.512 27.648 229.888-2.56-0.512 57.344z" fill="#8C6E62" p-id="4221"></path><path d="M733.696 974.336l-283.648 2.048-1.024-53.76 229.888-2.56-0.512-29.184c0-3.072-1.536-9.216-8.192-18.432-6.144-6.144-18.432-7.168-21.504-7.168l-120.32 0.512-1.536-161.792 23.04-3.584c110.592-15.872 203.264-108.544 215.04-215.04l-3.072-354.816c0-13.824-12.8-26.112-26.624-25.6l-310.272 2.048-1.024-53.76 309.76-2.56c44.544-1.024 80.896 35.328 81.408 80.384l3.584 357.888v1.536c-13.312 123.392-113.152 231.936-237.568 260.096l1.024 61.44 66.048-1.024c3.072 0 35.328 1.024 58.88 23.552l1.536 1.536c23.552 24.064 24.064 52.224 24.064 59.904l1.024 78.336zM225.792 507.392c-38.4-2.56-80.384-19.968-113.664-47.104-34.304-30.208-56.832-67.072-60.416-105.472V353.28l-1.024-153.088c-0.512-30.72 25.088-57.344 55.808-56.32L225.28 143.36l1.024 53.76-118.784 0.512c-1.536 0-1.536 1.536-1.536 1.536l1.024 147.968c3.584 24.576 19.456 49.152 43.008 68.608 25.088 20.992 54.784 32.768 82.432 35.328l-6.656 56.32z" fill="#8C6E62" p-id="4222"></path><path d="M587.776 474.624c-3.072 0-7.68-1.536-10.752-3.072l-64-32.768L450.56 472.064c-7.68 4.608-16.896 3.584-24.576-1.024-7.68-4.608-11.264-13.824-9.728-23.04l12.8-69.632-50.176-48.64c-6.144-6.144-8.192-15.36-6.656-23.04 1.536-7.68 10.752-13.824 18.432-15.872l69.12-10.752 29.696-65.536c4.608-7.68 12.288-12.8 19.968-12.8 9.216 0 16.896 4.096 20.48 11.776l33.792 64 69.632 9.728c9.216 1.536 15.36 7.68 18.944 14.848 3.072 7.68 0.512 16.896-5.632 23.04L594.944 378.88l13.824 69.12c1.536 9.216-1.024 16.896-8.704 23.04-3.072 1.536-7.68 3.072-12.288 3.584zM512 389.632c3.072 0 7.68 1.536 10.752 3.072l32.768 16.384-6.656-35.328c-1.536-7.68 1.024-15.36 5.632-19.968l25.6-26.624-35.328-4.096c-7.68-1.536-13.824-6.144-17.408-11.776l-17.408-32.256-14.848 32.768c-3.072 7.68-10.752 12.288-18.432 12.8l-35.328 5.12 25.088 25.6c6.144 6.144 8.192 13.824 6.656 19.968l-5.632 35.328 32.256-17.408c4.608-2.048 9.216-3.584 12.288-3.584z" fill="#E65100" p-id="4223"></path><path d="M792.064 447.488c27.648-2.048 58.368-16.384 80.896-36.864s37.888-45.568 40.448-70.144l-1.024-147.968c0-1.536-1.536-1.536-1.536-1.536l-118.784 0.512-1.024-53.76 118.784-0.512c30.72-0.512 57.344 25.088 56.32 55.808l1.024 152.576v1.536c-4.096 38.4-25.088 75.776-59.904 105.984-31.744 28.16-73.216 46.08-113.152 49.664l-2.048-55.296z" fill="#8C6E62" p-id="4224"></path></svg>